{"asset":{"version":"2.0","generator":"Keire Sample Asset Studio"},"scene":0,"scenes":[{"nodes":[0]}],"nodes":[{"mesh":0,"name":"ArcaneSigil"}],"meshes":[{"name":"ArcaneSigil","primitives":[{"attributes":{"POSITION":0},"indices":1,"material":0}]}],"materials":[{"name":"Arcane Aether Sigil","pbrMetallicRoughness":{"baseColorFactor":[0.015,0.22,1,1],"metallicFactor":0.88,"roughnessFactor":0.12},"emissiveFactor":[0.01,0.38,1],"doubleSided":true}],"buffers":[{"byteLength":792,"uri":"data:application/octet-stream;base64,"}],"bufferViews":[{"buffer":0,"byteOffset":0,"byteLength":408,"target":34962},{"buffer":0,"byteOffset":408,"byteLength":384,"target":34963}],"accessors":[{"bufferView":0,"componentType":5126,"count":34,"type":"VEC3","min":[-0.82,-0.82,-0.07],"max":[0.82,0.82,0.07]},{"bufferView":1,"componentType":5123,"count":192,"type":"SCALAR","min":[0],"max":[33]}]}
