{"asset":{"version":"2.0","generator":"Keire Sample Asset Studio"},"scene":0,"scenes":[{"nodes":[0]}],"nodes":[{"mesh":0,"name":"EmberShard"}],"meshes":[{"name":"EmberShard","primitives":[{"attributes":{"POSITION":0},"indices":1,"material":0}]}],"materials":[{"name":"Molten Ember Crystal","pbrMetallicRoughness":{"baseColorFactor":[1,0.08,0.005,1],"metallicFactor":0.72,"roughnessFactor":0.2},"emissiveFactor":[1,0.025,0.001],"doubleSided":false}],"buffers":[{"byteLength":120,"uri":"data:application/octet-stream;base64,"}],"bufferViews":[{"buffer":0,"byteOffset":0,"byteLength":72,"target":34962},{"buffer":0,"byteOffset":72,"byteLength":48,"target":34963}],"accessors":[{"bufferView":0,"componentType":5126,"count":6,"type":"VEC3","min":[-0.28,-1.1,-0.2],"max":[0.28,1.2,0.2]},{"bufferView":1,"componentType":5123,"count":24,"type":"SCALAR","min":[0],"max":[5]}]}
